<?xml version="1.0" encoding="UTF-8"?>
<svg width="99px" height="53px" viewBox="0 0 99 53" version="1.1" xmlns="http://www.w3.org/2000/svg" xmlns:xlink="http://www.w3.org/1999/xlink">
    <!-- Generator: Sketch 60.1 (88133) - https://sketch.com -->
    <title>Group 30</title>
    <desc>Created with Sketch.</desc>
    <defs>
        <polygon id="path-1" points="0.75865167 0.574680068 6.632 0.574680068 6.632 7.94985169 0.75865167 7.94985169"></polygon>
    </defs>
    <g id="Page-1" stroke="none" stroke-width="1" fill="none" fill-rule="evenodd">
        <g id="Group-30">
            <path d="M0,48.9736 L0.008,48.9736 C0.008,49.9286 0,50.8846 0.011,51.8386 C0.016,52.2296 0.183,52.5646 0.606,52.5846 C1.042,52.6066 1.214,52.2516 1.276,51.8866 C1.328,51.5956 1.345,51.2866 1.31,50.9946 C1.164,49.8186 1.667,49.5036 2.824,49.4956 C4.236,49.4866 3.917,50.3786 3.974,51.1606 C4.015,51.7076 3.771,52.5676 4.63,52.5366 C5.462,52.5066 5.226,51.6496 5.236,51.0946 C5.265,49.6616 5.263,48.2296 5.236,46.7976 C5.226,46.2426 5.458,45.3856 4.636,45.3486 C3.77,45.3086 4.01,46.1726 3.976,46.7186 C3.881,48.2186 3.225,48.7426 1.906,48.3036 C0.813,47.9386 1.424,46.9956 1.281,46.3146 C1.183,45.8426 1.2,45.2576 0.548,45.3096 C0.042,45.3496 0,45.8546 0,46.2866 L0,48.9736 Z" id="Fill-1" fill="#FFFFFF"></path>
            <path d="M79.6807,52.6738 C79.9237,52.6418 80.2997,52.6528 80.6277,52.5338 C81.3107,52.2838 82.4757,52.2028 82.1317,51.1948 C81.8157,50.2638 81.0357,51.1788 80.4737,51.2928 C79.1857,51.5538 78.0827,51.3198 77.3287,50.1728 C76.7017,49.2188 76.7577,48.2188 77.4537,47.3398 C78.3397,46.2238 79.4897,45.9788 80.8177,46.5318 C81.2577,46.7148 81.8197,47.3168 82.1577,46.5068 C82.4387,45.8368 81.7997,45.5638 81.3117,45.3688 C79.7487,44.7458 78.2437,44.8498 76.9567,46.0008 C75.6707,47.1528 75.3017,48.6238 75.9327,50.2298 C76.5657,51.8368 77.8487,52.6088 79.6807,52.6738" id="Fill-3" fill="#FFFFFF"></path>
            <path d="M50.1563,45.1787 L50.1563,45.1867 C49.5033,45.1867 48.8483,45.1687 48.1963,45.1927 C47.7773,45.2067 47.3003,45.2547 47.3563,45.8467 C47.3993,46.3097 47.8273,46.3797 48.1673,46.3267 C49.5923,46.1087 49.5103,47.0327 49.4893,47.9707 C49.4663,49.0377 49.4643,50.1097 49.4933,51.1787 C49.5083,51.7227 49.2813,52.5517 50.1563,52.5327 C50.8913,52.5167 50.7083,51.7477 50.7183,51.2467 C50.7413,49.9997 50.7253,48.7527 50.7293,47.5037 C50.7313,46.9497 50.7533,46.4307 51.5103,46.3507 C52.0383,46.2937 52.9793,46.5987 52.8783,45.7207 C52.7793,44.8587 51.8223,45.2617 51.2253,45.1877 C50.8743,45.1437 50.5123,45.1787 50.1563,45.1787" id="Fill-5" fill="#FFFFFF"></path>
            <path d="M65.001,48.9179 C65.003,48.9179 65.005,48.9179 65.007,48.9169 C65.007,48.0239 65.02,47.1299 65.001,46.2369 C64.991,45.8289 65.005,45.3189 64.425,45.3049 C63.848,45.2879 63.82,45.7689 63.819,46.1959 C63.814,48.0419 63.812,49.8889 63.823,51.7349 C63.826,52.1629 63.892,52.6279 64.474,52.5799 C64.919,52.5429 64.991,52.1419 64.996,51.7769 C65.009,50.8229 65.001,49.8699 65.001,48.9179" id="Fill-7" fill="#FFFFFF"></path>
            <path d="M18.2041,44.2861 C19.1971,44.1471 19.7781,43.7811 20.0541,43.0271 C20.1381,42.7961 19.8451,42.5971 19.6141,42.6031 C18.6571,42.6351 18.4911,43.3521 18.2041,44.2861" id="Fill-9" fill="#FFFFFF"></path>
            <path d="M35.3662,19.9814 C35.9072,20.0044 38.1272,17.9814 38.0252,17.5384 C37.8882,16.9404 37.2942,16.2234 36.8802,16.4324 C35.8502,16.9474 34.9372,17.7934 34.5172,18.9114 C34.3172,19.4444 34.8412,19.8574 35.3662,19.9814 M41.4602,26.0174 C41.9872,26.0324 44.2002,23.9794 44.0872,23.5454 C43.9302,22.9484 43.2582,22.2314 42.9212,22.4264 C41.9282,23.0034 40.9502,23.7814 40.5792,24.9464 C40.3892,25.5364 40.9272,25.8794 41.4602,26.0174 M59.5122,14.1244 C60.1652,14.1434 62.2162,11.8524 62.0892,11.3354 C61.8972,10.5594 61.3712,10.1854 60.6612,10.6804 C59.9932,11.1484 59.4382,11.7794 58.8462,12.3504 C58.6012,12.5864 58.2622,12.8504 58.5832,13.2294 C58.8812,13.5804 59.2472,13.8734 59.5122,14.1244 M47.2312,4.3954 C47.3482,3.3344 44.8232,1.2214 44.2212,1.4394 C44.0642,1.4954 43.8972,1.6064 43.8032,1.7394 C43.2962,2.4504 43.7002,3.0384 44.2332,3.3994 C44.9782,3.9024 45.1452,5.3354 46.4772,4.8814 C46.8522,4.7524 47.1652,4.4404 47.2312,4.3954 M53.6772,9.5804 C52.7902,8.8644 51.9232,8.2394 51.1482,7.5144 C50.5982,7.0014 50.2742,7.1554 49.8392,7.6264 C49.4382,8.0594 49.1212,8.3964 49.7102,8.9284 C50.3252,9.4854 50.8822,10.1054 51.4742,10.6894 C51.7232,10.9364 52.0052,11.2564 52.3762,10.9494 C52.7322,10.6544 53.0202,10.2794 53.6772,9.5804 M50.4232,13.2354 C49.9802,13.3274 49.7362,13.7514 49.4362,14.0964 C49.1062,14.4784 49.4172,14.7434 49.6552,14.9894 C50.2722,15.6244 50.9012,16.2484 51.5302,16.8714 C51.7942,17.1314 52.0872,17.3444 52.4402,17.0244 C52.7832,16.7124 53.2082,16.4384 53.2432,15.9174 C53.2612,15.6304 50.7702,13.2474 50.4232,13.2354 M47.5832,21.6994 C46.7312,21.0364 45.8352,20.4534 45.0852,19.7194 C44.3662,19.0164 43.9952,19.4434 43.5132,19.9424 C42.8392,20.6414 43.4532,21.0664 43.8912,21.3444 C44.7472,21.8904 44.9592,23.4624 46.4022,23.0094 C46.7332,22.9054 46.9472,22.4254 47.5832,21.6994 M39.8352,11.2424 C40.4172,11.1404 40.6702,10.7114 40.9972,10.3874 C41.3502,10.0364 41.1432,9.7454 40.8742,9.4754 C40.2822,8.8854 39.6982,8.2844 39.0852,7.7174 C38.7452,7.4034 38.3092,7.3934 37.9172,7.6104 C37.5932,7.7904 37.3032,8.1474 37.4252,8.4854 C37.8672,9.7234 39.0092,10.3674 39.8352,11.2424 M53.1002057,28.3994 C53.1042,27.8154 50.9972,25.4704 50.5372,25.4404 C50.0282,25.4074 49.8732,25.8854 49.5712,26.1434 C49.2622,26.4084 49.1932,26.7264 49.5302,27.0514 C50.2182,27.7134 50.8332,28.4714 51.5962,29.0264 C52.3932,29.6064 52.9052,29.1554 53.1002057,28.3994 M56.3632,5.1714 C56.0422,4.4444 55.5442,3.9184 54.7682,4.4544 C53.9532,5.0194 53.2842,5.7994 52.5752,6.5084 C52.1382,6.9454 52.5052,7.2584 52.8212,7.5224 C53.1112,7.7674 53.4142,8.3244 53.8282,7.9494 C54.7272,7.1354 55.7922,6.4454 56.3632,5.1714 M59.1862,22.3494 C59.1652,21.7474 57.0402,19.3914 56.6242,19.3824 C56.4732,19.3794 56.2762,19.4584 56.1732,19.5674 C55.8662,19.8974 55.1842,20.2434 55.4232,20.6314 C56.0332,21.6314 56.9152,22.4444 57.8822,23.1264 C58.1882,23.3414 58.5892,23.2494 58.8442,22.9514 C59.0222,22.7424 59.1222,22.4674 59.1862,22.3494 M44.1702,11.3194 C43.9382,10.8144 43.5962,10.3354 42.9872,10.1664 C42.7232,10.0924 40.0872,12.8194 40.1962,13.0444 C40.4562,13.5774 40.8282,14.0594 41.4702,14.1434 C41.7722,14.1844 44.1702,11.6664 44.1702,11.3194 M44.4092,12.6484 C43.9072,13.3954 43.6572,13.7904 43.3842,14.1674 C43.0792,14.5884 43.4132,14.8154 43.6452,15.0534 C44.2222,15.6474 44.8502,16.1934 45.3972,16.8114 C46.1022,17.6084 46.4982,17.0084 46.9422,16.5374 C47.2042,16.2584 47.3582,15.9814 47.0362,15.6234 C46.2522,14.7524 45.4842,13.8694 44.4092,12.6484 M50.2202,17.3944 C50.0182,16.8634 49.6292,16.4234 49.0522,16.2184 C48.7692,16.1184 46.1532,18.7674 46.2492,19.0584 C46.4412,19.6484 46.8842,20.0544 47.4882,20.2044 C47.7532,20.2704 50.2062,17.7354 50.2202,17.3944 M50.4592,11.4764 C50.0402,10.9944 49.7602,10.6234 49.4302,10.3014 C49.0642,9.9444 48.7962,10.2514 48.5422,10.5034 C47.9072,11.1334 47.3022,11.7954 46.6322,12.3834 C46.0652,12.8774 46.1702,13.2684 46.6752,13.6824 C46.9752,13.9304 47.2612,14.4774 47.6972,14.1044 C48.6382,13.3004 49.5002,12.4014 50.4592,11.4764 M56.3102,17.4104 C56.1762,16.8614 55.7312,16.4834 55.1992,16.2214 C54.9622,16.1064 52.2902,18.6284 52.3162,18.9604 C52.3682,19.6234 52.8772,19.9774 53.4082,20.2214 C53.7252,20.3654 56.2602,17.9224 56.3102,17.4104 M44.5702,29.0244129 C44.6752,28.9974 44.8982,29.0034 45.0092,28.8974 C46.7162,27.2414 48.4382,25.5984 50.0852,23.8814 C50.5552,23.3914 49.8802,23.0654 49.5952,22.7354 C49.2992,22.3914 48.9662,22.2064 48.5552,22.6224 C47.0082,24.1874 45.4412,25.7354 43.9052,27.3114 C43.6122,27.6114 43.4442,28.0044 43.6752,28.4534 C43.8502,28.7964 44.0922,29.0264 44.5702,29.0244129 M47.4292,8.2134 C47.6482,8.0824 47.8242,8.0154 47.9462,7.8964 C49.5632,6.3074 51.1872,4.7234 52.7752,3.1064 C53.2082,2.6634 53.1782,2.1274 52.6842,1.6924 C52.1592,1.2284 51.6892,1.4464 51.2662,1.8544 C49.7232,3.3484 48.1842,4.8484 46.6492,6.3514 C46.4032,6.5934 46.0542,6.8524 46.4112,7.2414 C46.7282,7.5874 47.0902,7.8934 47.4292,8.2134 M59.2842,8.2384 C59.2612,7.8524 59.0752,7.5744 58.7412,7.3774 C58.2042,7.0594 57.8232,7.3874 57.4832,7.7134 C55.9382,9.1944 54.4222,10.7064 52.8722,12.1804 C52.3632,12.6664 52.1692,13.0314 52.7762,13.6304 C53.4102,14.2554 53.8152,14.1384 54.3772,13.5574 C55.7812,12.1054 57.2372,10.7024 58.6742,9.2804 C58.9712,8.9864 59.2802,8.7044 59.2842,8.2384 M41.5942,4.3534 C41.1552,4.3474 40.8582,4.5504 40.6672,4.8594 C40.3832,5.3224 40.4742,5.7814 40.8452,6.1594 C42.3852,7.7274 43.9402,9.2804 45.4762,10.8524 C45.9302,11.3164 46.3052,11.1914 46.6562,10.7564 C46.9282,10.4224 47.5782,10.1324 47.0672,9.6064 C45.4162,7.8994 43.7182,6.2374 42.0302,4.5674 C41.9132,4.4514 41.7182,4.4134 41.5942,4.3534 M61.2072,20.1474 C61.6752,20.1534 61.9972,19.9194 62.2102,19.5234 C62.4852,19.0074 62.2572,18.5954 61.9032,18.2394 C60.3462,16.6764 58.7782,15.1234 57.2182,13.5634 C56.8932,13.2374 56.5552,13.0024 56.1742,13.4564 C55.8872,13.7944 55.1542,14.1514 55.5142,14.5584 C57.2412,16.5164 58.9302,18.5224 61.0362,20.1074 C61.0792,20.1394 61.1492,20.1354 61.2072,20.1474 M40.1862,17.4804 C40.5112,17.0594 40.8272,16.7004 41.0832,16.3014 C41.3522,15.8834 40.9712,15.6494 40.7332,15.4134 C39.2492,13.9474 37.7542,12.4914 36.2612,11.0334 C35.7762,10.5604 35.2572,10.0434 34.6012,10.7294 C34.0052,11.3564 34.3482,11.9284 34.8582,12.4324 C36.3422,13.9004 37.8232,15.3684 39.3152,16.8284 C39.5132,17.0244 39.7622,17.1674 40.1862,17.4804 M50.6182,19.3584 C50.0112,19.3974 49.8092,19.8894 49.4792,20.2044 C49.1062,20.5574 49.3742,20.8384 49.6302,21.0944 C51.1922,22.6584 52.7562,24.2204 54.3232,25.7774 C54.8072,26.2574 55.3642,26.4244 55.8952,25.8984 C56.4582,25.3394 56.1662,24.8114 55.7012,24.3484 C54.1802,22.8274 52.6592,21.3074 51.1342,19.7924 C50.9682,19.6274 50.7762,19.4914 50.6182,19.3584 M38.2622,23.2074 C38.3832,23.1694 38.5972,23.1654 38.7102,23.0564 C40.4902,21.3114 42.2832,19.5794 44.0122,17.7844 C44.4852,17.2934 43.8432,16.9584 43.5632,16.6184 C43.2592,16.2484 42.9422,16.1204 42.5332,16.5354 C40.9092,18.1854 39.2662,19.8194 37.6302,21.4594 C37.3032,21.7874 37.1982,22.1824 37.3842,22.5984 C37.5342,22.9304 37.8212,23.1544 38.2622,23.2074 M35.6802,21.2864 C34.5422,21.1804 33.5732,20.8294 33.2242,19.5844 C32.8952,18.4134 33.5932,17.6984 34.3292,16.9474 C36.3522,14.8814 36.1322,15.3734 34.3582,13.5804 C33.6362,12.8484 32.8522,12.1354 33.1772,10.9614 C33.5072,9.7654 34.3312,9.1944 35.5792,9.2804 C36.0932,9.3154 36.1782,9.0654 36.0932,8.6274 C35.9812,8.0764 36.1512,7.5794 36.4032,7.0854 C37.0562,5.7984 38.9042,6.6134 39.3232,5.7484 C39.8402,4.6844 40.0692,3.5714 41.4092,3.4304 C42.2202,3.3464 42.3652,3.0254 42.3262,2.3064 C42.2702,1.2944 42.8242,0.6184 43.7552,0.2664 C44.6302,-0.0636 45.3942,0.1734 46.0592,0.7944 C46.2782,0.9974 46.5212,1.1864 46.6922,1.4264 C47.8032,2.9814 48.7612,2.7994 50.0112,1.4394 C52.0972,-0.8276 53.5022,-0.4006 54.3632,2.6064 C54.4562,2.9324 54.5122,3.1444 54.8862,3.1524 C55.1822,3.1594 55.4862,3.1694 55.7742,3.2324 C57.3312,3.5754 56.9012,5.5944 57.7232,5.9794 C58.8092,6.4904 60.0812,6.5494 60.3092,7.9734 C60.4462,8.8194 60.6942,9.0954 61.5822,9.2484 C63.4762,9.5714 64.0102,11.3974 62.7922,12.9174 C62.1362,13.7374 60.7342,14.2824 60.8672,15.3004 C60.9752,16.1274 62.1262,16.7994 62.7662,17.5814 C64.0422,19.1344 63.3352,21.1154 61.3462,21.2534 C60.3872,21.3204 60.1812,21.6214 60.0692,22.4394 C59.8532,24.0104 57.7002,23.6844 57.4282,24.5954 C57.0482,25.8754 56.9642,27.1034 55.4262,27.3194 C54.6162,27.4314 54.4132,27.6904 54.2652,28.4874 C53.8952,30.4904 52.0482,31.0334 50.5072,29.6944 C49.7472,29.0354 49.2272,27.7804 48.2622,27.7674 C47.2982,27.7534 46.7722,29.0144 45.9972,29.6524 C44.3462,31.0064 42.5872,30.3144 42.3052,28.1204 C42.2192,27.4414 42.0952,27.1294 41.3932,27.2274 C41.2772,27.2434 41.1552,27.2104 41.0362,27.2054 C39.1492,27.1414 39.7392,24.6464 38.5122,24.3854 C36.8262,24.0264 36.1352,23.2394 36.0692,21.6534 C36.2682,21.1834 36.1412,21.0594 35.6802,21.2864" id="Fill-11" fill="#FFFFFF"></path>
            <path d="M0,48.9736 L0,46.2866 C0,45.8546 0.042,45.3496 0.548,45.3096 C1.2,45.2576 1.183,45.8426 1.281,46.3146 C1.424,46.9956 0.813,47.9386 1.906,48.3036 C3.225,48.7426 3.881,48.2186 3.976,46.7186 C4.01,46.1726 3.77,45.3086 4.636,45.3486 C5.458,45.3856 5.226,46.2426 5.236,46.7976 C5.263,48.2296 5.265,49.6616 5.236,51.0946 C5.226,51.6496 5.462,52.5066 4.63,52.5366 C3.771,52.5676 4.015,51.7076 3.974,51.1606 C3.917,50.3786 4.236,49.4866 2.824,49.4956 C1.667,49.5036 1.164,49.8186 1.31,50.9946 C1.345,51.2866 1.328,51.5956 1.276,51.8866 C1.214,52.2516 1.042,52.6066 0.606,52.5846 C0.183,52.5646 0.016,52.2296 0.011,51.8386 C0,50.8846 0.008,49.9286 0.008,48.9736 L0,48.9736 Z" id="Fill-13" fill="#FFFFFF"></path>
            <path d="M79.6807,52.6738 C77.8487,52.6088 76.5657,51.8368 75.9327,50.2298 C75.3017,48.6238 75.6707,47.1528 76.9567,46.0008 C78.2437,44.8498 79.7487,44.7458 81.3117,45.3688 C81.7997,45.5638 82.4387,45.8368 82.1577,46.5068 C81.8197,47.3168 81.2577,46.7148 80.8177,46.5318 C79.4897,45.9788 78.3397,46.2238 77.4537,47.3398 C76.7577,48.2188 76.7017,49.2188 77.3287,50.1728 C78.0827,51.3198 79.1857,51.5538 80.4737,51.2928 C81.0357,51.1788 81.8157,50.2638 82.1317,51.1948 C82.4757,52.2028 81.3107,52.2838 80.6277,52.5338 C80.2997,52.6528 79.9237,52.6418 79.6807,52.6738" id="Fill-15" fill="#FFFFFF"></path>
            <g id="Group-19" transform="translate(92.000000, 44.673800)">
                <mask id="mask-2" fill="white">
                    <use xlink:href="#path-1"></use>
                </mask>
                <g id="Clip-18"></g>
                <path d="M3.5771,2.7539 C3.4411,3.7809 2.7071,4.2939 3.2211,4.9539 C3.4271,5.2179 4.0361,5.2109 4.1851,4.9539 C4.5631,4.3059 4.0141,3.7879 3.5771,2.7539 M6.6321,7.3599 C6.4901,7.5429 6.3901,7.7869 6.2131,7.8799 C5.7901,8.0989 5.5851,7.7599 5.3691,7.4659 C4.1041,5.7439 3.2011,5.7409 1.9181,7.4599 C1.6941,7.7589 1.4751,8.0789 1.0611,7.8599 C0.6671,7.6509 0.7291,7.2509 0.8521,6.9129 C1.5481,5.0079 2.2471,3.1059 2.9771,1.2139 C3.2181,0.5919 3.8351,0.2709 4.1431,0.9699 C5.0581,3.0369 5.7991,5.1809 6.6321,7.3599" id="Fill-17" fill="#FFFFFF" mask="url(#mask-2)"></path>
            </g>
            <path d="M19.1465,47.4814 C18.9425,48.4674 18.2115,48.9894 18.7355,49.6884 C18.8445,49.8354 19.5905,49.7824 19.6865,49.6154 C20.0555,48.9734 19.5265,48.4474 19.1465,47.4814 M22.0075,51.7024 C22.0815,52.2604 21.9415,52.5264 21.6235,52.6104 C21.2955,52.6984 21.0975,52.4594 20.9025,52.2104 C19.4645,50.3784 18.9525,50.3844 17.3505,52.2294 C17.1525,52.4574 16.9445,52.6994 16.6065,52.5714 C16.2785,52.4484 16.1615,52.1474 16.2725,51.8394 C17.0085,49.8204 17.7375,47.7974 18.5305,45.7994 C18.7955,45.1314 19.4215,45.0234 19.7115,45.7134 C20.5675,47.7494 21.3015,49.8354 22.0075,51.7024" id="Fill-20" fill="#FFFFFF"></path>
            <path d="M34.3271,46.292 C33.8991,46.231 33.6991,46.654 33.7041,47.376 C33.7091,48.09 33.7241,48.674 34.7001,48.599 C35.4111,48.546 36.0561,48.366 36.1001,47.575 C36.1501,46.687 35.4771,46.409 34.3271,46.292 M32.5331,48.864 C32.5321,48.331 32.5381,47.797 32.5311,47.263 C32.5151,46.188 32.3041,45.108 34.0541,45.176 C36.1681,45.257 37.2681,45.85 37.3071,47.365 C37.3481,48.884 36.4731,49.753 35.0321,49.751 C33.8451,49.748 33.6301,50.23 33.7141,51.232 C33.7561,51.723 33.9301,52.513 33.2071,52.542 C32.3241,52.575 32.5631,51.728 32.5411,51.179 C32.5101,50.409 32.5341,49.638 32.5331,48.864" id="Fill-22" fill="#FFFFFF"></path>
            <path d="M50.1563,45.1787 C50.5123,45.1787 50.8743,45.1437 51.2253,45.1877 C51.8223,45.2617 52.7793,44.8587 52.8783,45.7207 C52.9793,46.5987 52.0383,46.2937 51.5103,46.3507 C50.7533,46.4307 50.7313,46.9497 50.7293,47.5037 C50.7253,48.7527 50.7413,49.9997 50.7183,51.2467 C50.7083,51.7477 50.8913,52.5167 50.1563,52.5327 C49.2813,52.5517 49.5083,51.7227 49.4933,51.1787 C49.4643,50.1097 49.4663,49.0377 49.4893,47.9707 C49.5103,47.0327 49.5923,46.1087 48.1673,46.3267 C47.8273,46.3797 47.3993,46.3097 47.3563,45.8467 C47.3003,45.2547 47.7773,45.2067 48.1963,45.1927 C48.8483,45.1687 49.5033,45.1867 50.1563,45.1867 L50.1563,45.1787 Z" id="Fill-24" fill="#FFFFFF"></path>
            <path d="M65.001,48.9179 C65.001,49.8699 65.009,50.8229 64.996,51.7769 C64.991,52.1419 64.919,52.5429 64.474,52.5799 C63.892,52.6279 63.826,52.1629 63.823,51.7349 C63.812,49.8889 63.814,48.0419 63.819,46.1959 C63.82,45.7689 63.848,45.2879 64.425,45.3049 C65.005,45.3189 64.991,45.8289 65.001,46.2369 C65.02,47.1299 65.007,48.0239 65.007,48.9169 C65.005,48.9179 65.003,48.9179 65.001,48.9179" id="Fill-26" fill="#FFFFFF"></path>
            <path d="M18.2041,44.2861 C18.4911,43.3521 18.6571,42.6351 19.6141,42.6031 C19.8451,42.5971 20.1381,42.7961 20.0541,43.0271 C19.7781,43.7811 19.1971,44.1471 18.2041,44.2861" id="Fill-28" fill="#FFFFFF"></path>
        </g>
    </g>
</svg>