<?xml version="1.0" encoding="UTF-8"?>
<svg width="105px" height="28px" viewBox="0 0 105 28" version="1.1" xmlns="http://www.w3.org/2000/svg" xmlns:xlink="http://www.w3.org/1999/xlink">
    <!-- Generator: Sketch 60.1 (88133) - https://sketch.com -->
    <title>Group 27</title>
    <desc>Created with Sketch.</desc>
    <defs>
        <polygon id="path-1" points="0 0.882054229 17.6284201 0.882054229 17.6284201 21.775392 0 21.775392"></polygon>
        <polygon id="path-3" points="0.0257933579 0.902754463 14.9800043 0.902754463 14.9800043 23 0.0257933579 23"></polygon>
    </defs>
    <g id="Page-1" stroke="none" stroke-width="1" fill="none" fill-rule="evenodd">
        <g id="Group-27" transform="translate(0.000000, -1.000000)">
            <g id="Group-3" transform="translate(0.000000, 0.407200)">
                <mask id="mask-2" fill="white">
                    <use xlink:href="#path-1"></use>
                </mask>
                <g id="Clip-2"></g>
                <path d="M4.3066,11.3789 C4.3066,13.3339 4.3166,15.2889 4.3006,17.2439 C4.2966,17.7579 4.4366,18.0249 5.0136,18.0069 C6.0776,17.9749 7.1426,18.0219 8.2066,17.9899 C10.0566,17.9369 11.4516,17.1179 12.1716,15.3779 C13.3396,12.5539 13.3106,9.6889 12.2726,6.8379 C11.8696,5.7319 10.9946,5.0999 9.8476,4.8639 C8.2796,4.5419 6.6886,4.7749 5.1116,4.6919 C4.4886,4.6579 4.2896,4.9089 4.2976,5.5119 C4.3226,7.4669 4.3066,9.4229 4.3066,11.3789 L4.3066,11.3789 Z M-0.0004,0.9519 C3.4636,0.9409 6.9326,0.7529 10.3906,1.0439 C13.9116,1.3399 16.0136,3.4729 16.9806,6.7049 C17.9846,10.0519 17.8246,13.4159 16.4796,16.6709 C15.0936,20.0309 12.5306,21.7149 8.9136,21.7579 C5.9436,21.7929 2.9706,21.7649 -0.0004,21.7629 L-0.0004,0.9519 Z" id="Fill-1" fill="#FFFFFF" mask="url(#mask-2)"></path>
            </g>
            <path d="M88.4473,1.2109 C88.4623,2.2989 88.4683,3.3889 88.4903,4.4779 C88.4993,4.9169 88.2993,5.1069 87.8653,5.1049 C86.8753,5.0969 85.8843,5.0929 84.8943,5.1049 C84.3993,5.1109 84.2533,4.8489 84.2603,4.4039 C84.2753,3.3389 84.2783,2.2739 84.2863,1.2109 L88.4473,1.2109 Z" id="Fill-4" fill="#FFFFFF"></path>
            <path d="M52.3252,1.2109 C52.4482,2.3159 52.3542,3.4249 52.3802,4.5319 C52.3882,4.9479 52.1642,5.1009 51.7812,5.1009 C50.7712,5.0989 49.7622,5.0989 48.7512,5.1009 C48.4452,5.1009 48.1822,5.0009 48.1872,4.6589 C48.1992,3.5089 48.0022,2.3509 48.3112,1.2109 L52.3252,1.2109 Z" id="Fill-6" fill="#FFFFFF"></path>
            <g id="Group-10" transform="translate(53.000000, 5.407200)">
                <mask id="mask-4" fill="white">
                    <use xlink:href="#path-3"></use>
                </mask>
                <g id="Clip-9"></g>
                <path d="M4.4229,8.959 C4.3859,9.8 4.5159,10.576 4.8149,11.32 C5.3579,12.674 6.3319,13.331 7.7249,13.298 C8.9649,13.267 10.0759,12.451 10.4999,11.197 C10.9709,9.801 10.9709,8.373 10.5689,6.966 C10.1099,5.352 8.9909,4.559 7.4009,4.616 C6.0159,4.668 4.9849,5.6 4.6239,7.162 C4.4849,7.763 4.3729,8.373 4.4229,8.959 M10.9139,14.78 C7.2659,18.309 2.0439,17.008 0.5809,12.314 C-0.4011,9.162 -0.1311,6.081 1.7999,3.299 C3.2709,1.182 6.2389,0.346 8.6399,1.285 C9.5229,1.629 10.1649,2.276 10.7769,3.036 C10.8249,2.923 10.8709,2.865 10.8729,2.806 C10.9039,1.196 10.6039,1.266 12.4539,1.268 C13.0479,1.27 13.6439,1.288 14.2369,1.265 C14.7789,1.242 15.0189,1.47 14.9749,2.01 C14.9609,2.183 14.9739,2.356 14.9739,2.53 C14.9739,6.964 14.9689,11.397 14.9779,15.832 C14.9809,16.578 14.9289,17.316 14.8079,18.05 C14.4879,19.997 13.5359,21.525 11.6369,22.209 C8.7189,23.259 5.7739,23.338 2.8989,21.998 C1.6549,21.419 0.9189,20.399 0.5679,19.079 C0.4089,18.49 0.5239,18.182 1.2109,18.2 C2.2499,18.229 3.2899,18.22 4.3309,18.202 C4.7279,18.196 4.9869,18.326 5.1389,18.705 C5.3499,19.236 5.7869,19.496 6.3259,19.609 C7.1109,19.775 7.9049,19.789 8.6859,19.624 C9.8409,19.38 10.4709,18.583 10.6599,17.467 C10.7999,16.643 10.8219,15.799 10.9139,14.78" id="Fill-8" fill="#FFFFFF" mask="url(#mask-4)"></path>
            </g>
            <path d="M25.6152,12.7607 C26.4782,12.7607 27.3452,12.7257 28.2072,12.7737 C28.8962,12.8117 28.9292,12.5137 28.7752,11.9757 C28.3672,10.5427 27.1542,9.7647 25.3832,9.8287 C23.8142,9.8897 22.7262,10.7867 22.4162,12.2377 C22.3242,12.6767 22.5132,12.7627 22.8742,12.7607 C23.7872,12.7577 24.7012,12.7607 25.6152,12.7607 M25.8512,22.6537 C24.8752,22.6967 23.9222,22.5447 23.0022,22.2277 C20.1032,21.2297 18.4202,19.2547 18.0682,16.1567 C17.8982,14.6577 17.9552,13.1887 18.3102,11.7337 C19.2672,7.8137 22.6172,6.0827 26.1182,6.2787 C28.5582,6.4167 30.6402,7.2817 32.0242,9.4477 C33.1312,11.1817 33.2972,13.1127 33.2852,15.0847 C33.2822,15.6667 32.8322,15.6417 32.4292,15.6417 C29.4822,15.6447 26.5342,15.6447 23.5862,15.6447 C22.0612,15.6447 21.9512,15.8107 22.5352,17.2277 C23.3462,19.1977 26.4122,19.9307 28.0362,18.5367 C28.2032,18.3947 28.4162,18.2257 28.4632,18.0347 C28.6892,17.0747 29.3722,17.0287 30.1652,17.0757 C30.8812,17.1177 31.6012,17.1027 32.3182,17.0807 C32.9472,17.0637 33.0942,17.3317 32.9422,17.9107 C32.4062,19.9447 31.0492,21.2367 29.1872,22.0377 C28.1332,22.4917 27.0102,22.6987 25.8512,22.6537" id="Fill-11" fill="#FFFFFF"></path>
            <path d="M44.8965,11.5166 C44.6495,11.5166 44.3995,11.4946 44.1545,11.5216 C43.3755,11.6096 42.7465,11.5246 42.5725,10.5606 C42.5065,10.1986 42.1445,9.9526 41.7905,9.8136 C40.7835,9.4186 39.7515,9.4326 38.7405,9.7706 C38.2675,9.9266 37.9515,10.2816 37.9575,10.8296 C37.9605,11.3606 38.3055,11.6336 38.7485,11.7916 C39.9645,12.2296 41.2315,12.4676 42.4865,12.7576 C43.4815,12.9876 44.4435,13.2996 45.3265,13.8236 C48.2225,15.5376 48.2105,19.8956 45.1565,21.5626 C42.0995,23.2296 38.8405,23.1506 35.7425,21.5766 C34.2835,20.8366 33.5115,19.4466 33.3575,17.7636 C33.3115,17.2676 33.4665,17.0786 33.9525,17.0836 C34.9435,17.0956 35.9345,17.0876 36.9255,17.0886 C37.2075,17.0886 37.5175,17.1106 37.5765,17.4486 C37.8985,19.3206 39.3725,19.3256 40.7665,19.3926 C41.2995,19.4176 41.8565,19.3526 42.3735,19.1456 C42.8395,18.9576 43.1925,18.6736 43.2095,18.1216 C43.2255,17.5386 42.8885,17.2076 42.3835,17.0206 C41.1505,16.5596 39.8615,16.3006 38.5905,15.9706 C37.6315,15.7206 36.6965,15.4086 35.7975,14.9736 C33.2745,13.7536 33.4445,10.6326 34.4935,8.9836 C35.3945,7.5666 36.7105,6.7396 38.3495,6.4426 C40.3415,6.0796 42.2935,6.2296 44.1705,7.0436 C45.8605,7.7766 46.6605,9.1496 46.9525,10.8966 C47.0305,11.3706 46.8215,11.5266 46.3835,11.5166 C45.8885,11.5056 45.3925,11.5146 44.8965,11.5146 L44.8965,11.5166 Z" id="Fill-13" fill="#FFFFFF"></path>
            <path d="M73.1387,8.5986 C73.8107,7.8316 74.3107,7.1906 75.0577,6.8876 C77.2827,5.9866 79.4347,6.1206 81.3937,7.5576 C82.5597,8.4126 82.9537,9.7256 82.9727,11.1026 C83.0167,14.5436 82.9827,17.9886 83.0017297,21.4316 C83.0047,21.9886 82.7807,22.1826 82.2537,22.1746 C81.3387,22.1596 80.4217,22.1546 79.5047,22.1756 C78.9287,22.1906 78.7287,21.9526 78.7337,21.3786 C78.7537,18.7786 78.7427,16.1766 78.7427,13.5766 C78.7427,13.3026 78.7437,13.0316 78.7407,12.7576 C78.7167,10.8536 78.0407,9.9586 76.5667,9.8726 C74.7357,9.7686 73.4897,10.7806 73.3427,12.6106 C73.2457,13.8166 73.2847,15.0356 73.2787,16.2486 C73.2687,17.9336 73.2587,19.6186 73.2837,21.3016 C73.2907,21.9326 73.0667,22.2046 72.4157,22.1796 C71.5257,22.1456 70.6327,22.1646 69.7407,22.1696 C69.2827,22.1726 69.0756883,21.9856 69.0767,21.5016 C69.0847,16.7936 69.0857,12.0876 69.0756883,7.3816 C69.0737,6.8446 69.3287,6.6926 69.8037,6.6986 C70.6207,6.7076 71.4407,6.7296 72.2557,6.6906 C72.9547,6.6556 73.1987,6.9676 73.1427,7.6196 C73.1207,7.8636 73.1387,8.1096 73.1387,8.5986" id="Fill-15" fill="#FFFFFF"></path>
            <path d="M91.5605,15.126 C91.5605,13.45 91.5405,12.063 91.5685,10.676 C91.5815,10.079 91.3945,9.786 90.7645,9.85 C90.5205,9.874 90.2705,9.847 90.0225,9.847 C89.6045,9.844 89.4645,9.601 89.4675,9.222 C89.4715,8.652 89.4815,8.081 89.4635,7.513 C89.4475,6.992 89.7005,6.836 90.1895,6.821 C91.5605,6.778 91.5605,6.763 91.5605,5.397 C91.5605,4.678 91.5735,3.959 91.5595,3.242 C91.5495,2.746 91.7485,2.517 92.2625,2.525 C93.1785,2.544 94.0955,2.545 95.0115,2.524 C95.5455,2.514 95.7765,2.723 95.7625,3.269 C95.7425,4.234 95.7725,5.201 95.7545,6.167 C95.7465,6.637 95.9215,6.87 96.4055,6.826 C96.4305,6.823 96.4565,6.822 96.4805,6.827 C97.0275,6.909 97.7985,6.541 98.0835,7.049 C98.4825,7.753 98.2505,8.643 98.2035,9.453 C98.1865,9.719 97.9855,9.824 97.7365,9.839 C97.6375,9.845 97.5375,9.849 97.4395,9.853 C95.7585,9.912 95.7585,9.912 95.7585,11.566 C95.7585,13.671 95.7545,15.777 95.7625,17.883 C95.7665,18.895 95.9535,19.079 96.9735,19.142 C97.1705,19.154 97.3725,19.17 97.5675,19.142 C98.1165,19.06 98.2735,19.337 98.2505,19.823 C98.2385,20.096 98.2515,20.368 98.2485,20.64 C98.2295,22.355 98.4725,22.297 96.5425,22.347 C95.4515,22.375 94.3635,22.385 93.3195,21.978 C92.3525,21.601 91.7995,20.915 91.6645,19.884 C91.4425,18.204 91.6305,16.518 91.5605,15.126" id="Fill-17" fill="#FFFFFF"></path>
            <path d="M88.4912,14.5586 C88.4912,16.8106 88.4722,19.0616 88.5032,21.3126 C88.5122,21.9576 88.2922,22.2046 87.6482,22.1806 C86.7592,22.1456 85.8672,22.1626 84.9762,22.1726 C84.4992,22.1786 84.2482,22.0176 84.249197,21.4876 C84.2602,16.8366 84.2582,12.1866 84.249197,7.5356 C84.249197,7.0346 84.4422,6.8156 84.9512,6.8246 C85.8672,6.8426 86.7832,6.8546 87.6972,6.8196 C88.3232,6.7956 88.5062,7.0626 88.5002,7.6586 C88.4772,9.9576 88.4902,12.2576 88.4912,14.5586" id="Fill-19" fill="#FFFFFF"></path>
            <path d="M52.3818,14.5078 C52.3818,16.7848 52.3678,19.0638 52.3928,21.3398 C52.3998,21.9428 52.2028,22.1978 51.5868,22.1788 C50.7458,22.1498 49.9028,22.1438 49.0628,22.1808 C48.3908,22.2078 48.1428,21.9498 48.1498,21.2728 C48.1748,18.7978 48.1578,16.3218 48.1578,13.8478 C48.1578,11.7928 48.1738,9.7378 48.1498,7.6838 C48.1428,7.0498 48.3568,6.7858 49.0108,6.8188 C49.8758,6.8598 50.7428,6.8488 51.6098,6.8208 C52.1818,6.8038 52.3968,7.0218 52.3918,7.6028 C52.3698,9.9038 52.3818,12.2058 52.3818,14.5078" id="Fill-21" fill="#FFFFFF"></path>
            <path d="M102.7217,5.5176 C102.1867,5.6126 101.7217,5.6026 101.6437,4.8896 C101.6207,4.6746 101.4767,4.5226 101.2317,4.5626 C101.0067,4.5986 100.9957,4.7916 100.9927,4.9656 C100.9867,5.3006 100.9067,5.5556 100.4947,5.5406 C100.0247,5.5246 100.0257,5.1846 100.0217,4.8556 C100.0147,4.2366 100.0127,3.6186 100.0277,2.9976 C100.0307,2.8336 100.0647,2.6416 100.1567,2.5126 C100.3347,2.2596 101.8347,2.2816 102.2307,2.5326 C102.7387,2.8536 102.7737,3.2806 102.5527,3.8186 C102.3187,4.3946 102.7307,4.9486 102.7147,5.5266 L102.7217,5.5176 Z" id="Fill-23" fill="#FFFFFF"></path>
            <path d="M101.2764,1.5634 C100.0924,1.5634 99.1324,2.5244 99.1324,3.7074 C99.1324,4.8904 100.0924,5.8514 101.2764,5.8514 C102.4624,5.8514 103.4224,4.8904 103.4224,3.7074 C103.4224,2.5244 102.4624,1.5634 101.2764,1.5634 M104.0564,3.7804 C104.0564,5.3154 102.8114,6.5594 101.2764,6.5594 C99.7414,6.5594 98.4974,5.3154 98.4974,3.7804 C98.4974,2.2454 99.7414,1.0004 101.2764,1.0004 C102.8114,1.0004 104.0564,2.2454 104.0564,3.7804" id="Fill-25" fill="#FFFFFF"></path>
        </g>
    </g>
</svg>